<svg style="position: absolute; width: 0; height: 0;" width="0" height="0" version="1.1" xmlns="http://www.w3.org/2000/svg" xmlns:xlink="http://www.w3.org/1999/xlink"><defs><symbol id=".null" viewBox="0 -64 512 512"><path d=""></path></symbol><symbol id="nonmarkingreturn" viewBox="0 -64 512 512"><path d=""></path></symbol><symbol id="space" viewBox="0 -64 512 512"><path d=""></path></symbol><symbol id="001-ideas" viewBox="0 -64 512 512"><path d="M421 217 q-2 -5 -7 -5 l-316 0 q-5 0 -7 5 l-32 68 q-4 7 0.5 14 q4.5 7 12.5 7 l18 0 l0 124 q0 8 5 13 q5 5 12 5 l298 0 q7 0 12 -5 q5 -5 5 -13 l0 -43 q0 -7 -7.5 -7 q-7.5 0 -7.5 7 l0 43 q0 3 -2 3 l-141 0 l0 -180 l19 43 q5 10 16 10 l108 0 l0 46 q0 8 7.5 8 q7.5 0 7.5 -8 l0 -46 l18 0 q8 0 12.5 -7 q4.5 -7 0.5 -14 l-32 -68 ZM102 227 l142 0 l-29 62 q-1 2 -2 2 l-141 0 l30 -64 ZM107 433 q-2 0 -2 -3 l0 -124 l108 0 q11 0 16 -10 l19 -43 l0 180 l-141 0 ZM299 291 q-1 0 -2 -2 l-29 -62 l142 0 l30 64 q-5 0 -141 0 ZM152 40 q-7 0 -7 7.5 q0 7.5 7 7.5 l14 0 q8 0 8 -7.5 q0 -7.5 -8 -7.5 l-14 0 ZM346 40 q-8 0 -8 7.5 q0 7.5 8 7.5 l14 0 q7 0 7 -7.5 q0 -7.5 -7 -7.5 l-14 0 ZM174 86 l-12 7 q-6 3 -2.5 9.5 q3.5 6.5 10.5 3.5 l12 -7 q6 -4 2.5 -10.5 q-3.5 -6.5 -10.5 -2.5 ZM342 -11 l-12 7 q-6 3 -2.5 9.5 q3.5 6.5 10.5 3.5 l12 -7 q6 -4 2.5 -10.5 q-3.5 -6.5 -10.5 -2.5 ZM301 -46 l-7 12 q-3 6 3.5 10 q6.5 4 9.5 -3 l7 -12 q4 -6 -2.5 -10 q-6.5 -4 -10.5 3 ZM248 -56 l0 13 q0 8 8 8 q8 0 8 -8 l0 -13 q0 -8 -8 -8 q-8 0 -8 8 ZM211 -46 q-4 -7 -10.5 -3 q-6.5 4 -2.5 10 l7 12 q3 7 9.5 3 q6.5 -4 3.5 -10 l-7 -12 ZM338 86 q-7 -4 -10.5 2.5 q-3.5 6.5 2.5 10.5 l12 7 q7 3 10.5 -3.5 q3.5 -6.5 -2.5 -9.5 l-12 -7 ZM170 -11 q-7 -4 -10.5 2.5 q-3.5 6.5 2.5 10.5 l12 7 q7 3 10.5 -3.5 q3.5 -6.5 -2.5 -9.5 l-12 -7 ZM330 50 q0 -25 -15 -45.5 q-15 -20.5 -40 -26.5 q-7 -2 -9 5 q-2 7 6 9 q26 7 37.5 30.5 q11.5 23.5 3 47.5 q-8.5 24 -34.5 35 q-6 2 -6 9 l0 11 l-8 0 l0 -45 l3 0 q7 0 12 -5 q5 -5 5 -12 q0 -7 -5 -12 q-5 -5 -12 -5 l-22 0 q-7 0 -12 5 q-5 5 -5 12 q0 7 5 12 q5 5 12 5 l3 0 l0 45 l-8 0 l0 -11 q0 -7 -6 -9 q-25 -10 -34 -34.5 q-9 -24.5 2.5 -47.5 q11.5 -23 37.5 -31 q8 -2 6 -9 q-2 -7 -9 -5 q-17 4 -29.5 15 q-12.5 11 -19.5 26 q-7 15 -6 32 q0 14 5.5 27 q5.5 13 15 23.5 q9.5 10.5 22.5 15.5 l0 8 q-14 3 -14 17 l0 7 q0 13 13 16 l8 16 q7 15 24 15 q17 0 24 -15 l8 -16 q13 -3 13 -16 l0 -7 q0 -14 -14 -17 l0 -8 q20 -9 31.5 -27 q11.5 -18 11.5 -40 ZM245 65 q-2 0 -2 -2 q0 -2 2 -2 l22 0 q2 0 2 2 q0 2 -2 2 l-22 0 ZM267 175 q-3 6 -11 6 q-8 0 -11 -6 l-4 -9 l30 0 l-4 9 ZM286 149 q0 2 -2 2 l-56 0 q-2 0 -2 -2 l0 -7 q0 -2 2 -2 l56 0 q2 0 2 2 l0 7 Z"></path></symbol><symbol id="002-flasks" viewBox="0 -64 512 512"><path d="M207 64 l0 0 l0 97 q0 22 15.5 37.5 q15.5 15.5 37 15.5 q21.5 0 37 -15.5 q15.5 -15.5 15.5 -37.5 l0 -181 q5 -2 9 -6 q6 -6 6 -16 q0 0 0 -1 q0 -9 -7 -15 q-7 -6 -16 -6 l-90 0 q-9 0 -15.5 6.5 q-6.5 6.5 -6.5 16 q0 9.5 6 15.5 q4 4 9 6 l0 84 ZM304 -49 q3 0 5.5 2 q2.5 2 2.5 5 l0 0 q0 8 -7 8 l-29 0 q-8 0 -8 7.5 q0 7.5 8 7.5 l21 0 l0 76 l-52 0 q-8 0 -8 7.5 q0 7.5 8 7.5 l52 0 l0 89 q0 16 -11 27 q-11 11 -26.5 11 q-15.5 0 -26.5 -11 q-11 -11 -11 -27 l0 -180 l23 0 q8 0 8 -7.5 q0 -7.5 -7 -7.5 l-1 0 l-31 0 q-7 0 -7 -7.5 q0 -7.5 7 -7.5 l90 0 ZM214 -49 l0 0 ZM436 243 q-6 -10 -6 -37 l0 -52 q17 -3 17 -22 q0 0 0 -1 q0 -5 -3 -10 q-3 -5 -8 -7.5 q-5 -2.5 -11 -2.5 l-77 0 q-10 0 -16.5 6 q-6.5 6 -6.5 15 q0 19 18 22 l0 52 q0 27 -6 37 l-69 119 q-17 28 0 57 q17 29 50 29 l137 0 q33 0 49.5 -29 q16.5 -29 0.5 -57 l-69 -119 ZM318 433 q-25 0 -37 -21.5 q-12 -21.5 0 -42.5 l69 -119 q8 -13 8 -44 l0 -51 l20 0 q7 0 7 -7.5 q0 -7.5 -7 -7.5 l-30 0 q-8 0 -8 -8 q0 -6 8 -6 l77 0 q7 0 7 6 q0 8 -7 8 l-17 0 q-8 0 -8 7.5 q0 7.5 8 7.5 l7 0 l0 51 q0 31 8 44 l69 119 q12 21 -0.5 42.5 q-12.5 21.5 -36.5 21.5 l-137 0 ZM455 433 l0 0 ZM444 316 q-4 -6 -10.5 -2.5 q-6.5 3.5 -2.5 10.5 l34 58 q4 7 0 14 q-4 7 -12 7 l-133 0 q-8 0 -12 -7 q-4 -7 0 -14 l32 -54 l72 0 q8 0 8 -7.5 q0 -7.5 -8 -7.5 l-77 0 q-4 0 -6 3 l-34 59 q-8 14 0 28.5 q8 14.5 25 14.5 l133 0 q17 0 25 -14.5 q8 -14.5 0 -28.5 l-34 -59 ZM444 316 l0 0 ZM366.5 337 q-7.5 0 -7.5 7.5 q0 7.5 7.5 7.5 q7.5 0 7.5 -7.5 q0 -7.5 -7.5 -7.5 ZM374 345 l0 0 ZM411.5 362 q-7.5 0 -7.5 7.5 q0 7.5 7.5 7.5 q7.5 0 7.5 -7.5 q0 -7.5 -7.5 -7.5 ZM419 370 l0 0 ZM376.5 377 q-7.5 0 -7.5 7.5 q0 7.5 7.5 7.5 q7.5 0 7.5 -7.5 q0 -7.5 -7.5 -7.5 ZM384 385 l0 0 ZM176 155 q18 -4 18 -22 q0 -9 -6.5 -16 q-6.5 -7 -16.5 -7 l-77 0 q-9 0 -15.5 7 q-6.5 7 -6.5 16 q0 9 7 16 q4 5 10 6 l0 35 q-39 14 -64 48.5 q-25 34.5 -25 76.5 q0 55 39 94 q39 39 94 39 q36 0 66.5 -18 q30.5 -18 48 -48.5 q17.5 -30.5 17.5 -65.5 q0 -43 -24.5 -77.5 q-24.5 -34.5 -64.5 -48.5 l0 -35 ZM133 433 q-48 0 -83 -34.5 q-35 -34.5 -34 -83.5 q0 -37 21.5 -67.5 q21.5 -30.5 56.5 -43.5 q10 -3 10 -14 l0 -34 l14 0 q7 -1 7 -8.5 q0 -7.5 -7 -7.5 l-24 0 q-7 0 -7 -7 q0 -7 7 -7 l77 0 q8 0 8 7 q0 7 -7 7 l-24 0 q-7 0 -7 8 q0 8 7 8 l13 0 l0 34 q0 11 11 15 q23 8 41 24.5 q18 16.5 27.5 39 q9.5 22.5 9.5 47.5 q0 48 -34 82.5 q-34 34.5 -83 34.5 ZM133 433 l0 0 ZM188 269 q-19 0 -40 19 q-5 5 0 10.5 q5 5.5 10 0.5 q17 -15 30 -15 q13 0 23 9.5 q10 9.5 9 24.5 q0 13 -9.5 22 q-9.5 9 -22.5 9 q-7 0 -13.5 -3 q-6.5 -3 -13 -9 q-6.5 -6 -11 -11 q-4.5 -5 -12.5 -15 q-10 -13 -17 -20 q-7 -7 -19 -14.5 q-12 -7.5 -24 -7.5 q-19 0 -33 14 q-15 14 -14 36 q1 41 31 70 q30 29 71 29 q43 0 73 -30.5 q30 -30.5 29 -71.5 q1 -19 -13 -33 q-14 -14 -34 -14 ZM133 403 q-25 0 -45.5 -12.5 q-20.5 -12.5 -31.5 -32.5 q-11 -20 -10 -42 q0 -9 4.5 -16.5 q4.5 -7.5 11.5 -11.5 q7 -4 16 -4 q9 0 18.5 6 q9.5 6 15 12.5 q5.5 6.5 15.5 18.5 q11 14 18 21 q7 7 19 14.5 q12 7.5 24 7.5 q11 0 21 -5 q-12 20 -32 32 q-20 12 -44 12 ZM133 403 l0 0 ZM72.5 313 q-7.5 0 -7.5 7.5 q0 7.5 7.5 7.5 q7.5 0 7.5 -7.5 q0 -7.5 -7.5 -7.5 ZM80 320 l0 0 ZM117.5 338 q-7.5 0 -7.5 7.5 q0 7.5 7.5 7.5 q7.5 0 7.5 -7.5 q0 -7.5 -7.5 -7.5 ZM125 346 l0 0 ZM82.5 353 q-7.5 0 -7.5 7.5 q0 7.5 7.5 7.5 q7.5 0 7.5 -7.5 q0 -7.5 -7.5 -7.5 ZM90 360 l0 0 Z"></path></symbol><symbol id="003-analysis" viewBox="0 -64 512 512"><path d="M198 -6 q-54 0 -92 38 q-38 38 -38 91.5 q0 53.5 38 91.5 q38 38 92 38 q54 0 92 -38 q38 -38 38 -91.5 q0 -53.5 -38 -91.5 q-38 -38 -92 -38 ZM117 42 q33 -33 80.5 -33 q47.5 0 81.5 33 q26 26 32 62 l-40 40 q-6 -4 -13 -4 q-14 0 -22 12 l-59 -18 l0 -1 q0 -11 -7.5 -18.5 q-7.5 -7.5 -18.5 -7.5 q-11 0 -19 7.5 q-8 7.5 -8 18.5 q0 7 4 13 l-31 32 q-18 -32 -13 -70.5 q5 -38.5 33 -65.5 ZM270 167 q0 4 -3.5 7.5 q-3.5 3.5 -8.5 3.5 q-5 0 -8.5 -3.5 q-3.5 -3.5 -3.5 -8 q0 -4.5 3.5 -8 q3.5 -3.5 8.5 -3.5 q3 0 5.5 1.5 q2.5 1.5 4.5 4.5 q2 3 2 6 ZM162 133 q0 3 -1.5 5.5 q-1.5 2.5 -4 4.5 q-2.5 2 -5.5 2 q-5 0 -8.5 -3.5 q-3.5 -3.5 -3.5 -8.5 q0 -3 1.5 -5.5 q1.5 -2.5 4.5 -4.5 q3 -2 6 -2 q4 0 7.5 3.5 q3.5 3.5 3.5 8.5 ZM197.5 238 q-47.5 0 -80.5 -33 q-7 -7 -12 -14 l33 -35 q6 3 13 3 q14 0 22 -11 l59 18 l0 1 q0 11 7.5 18.5 q7.5 7.5 18.5 7.5 q11 0 18.5 -7.5 q7.5 -7.5 7.5 -18.5 q0 -7 -3 -13 l32 -30 q0 47 -34 80.5 q-34 33.5 -81.5 33.5 ZM142 59 q37 -32 84 -16 l5 -14 q-26 -8 -52 -3 q-26 5 -47 22 l10 11 ZM242 51 q6 3 11 8 l10 -11 q-6 -5 -13 -10 l-8 13 ZM215 207 q-25 5 -49 -5 l-5 14 q18 7 37 7 q10 0 21 -2 l-4 -14 ZM372 253 l-26 -29 q23 -34 29 -75 q6 -41 -7 -80 l21 -20 q6 3 13 3 q11 0 18.5 -8 q7.5 -8 7.5 -19 q0 -6 -3 -12 l46 -44 l0 23 l14 0 l0 -48 l-47 0 l0 15 l22 0 l-45 44 q-6 -4 -13 -4 q-11 0 -19 8 q-8 8 -8 18 q0 7 4 13 l-16 16 q-14 -32 -39 -57 q-52 -52 -126 -52 q-74 0 -127 52 q-46 46 -51.5 111.5 q-5.5 65.5 31.5 117.5 l-12 13 q-6 -3 -13 -3 q-11 0 -18.5 7.5 q-7.5 7.5 -7.5 18.5 q0 7 3.5 13 q3.5 6 9.5 9.5 q6 3.5 13 3.5 q11 0 19 -7.5 q8 -7.5 8 -18.5 q0 -7 -4 -13 l11 -11 q5 6 11 12 q53 52 127 52 q55 0 100 -31 l27 29 l-11 11 l129 129 l69 -69 l-129 -129 l-11 11 ZM410 17.5 q3 3.5 3 7.5 q0 4 -1.5 6.5 q-1.5 2.5 -4 4 q-2.5 1.5 -5.5 1.5 q-5 0 -8.5 -3.5 q-3.5 -3.5 -3.5 -8 q0 -4.5 3.5 -8 q3.5 -3.5 8.5 -3.5 q5 0 8 3.5 ZM18.5 270 q-3.5 -3 -3.5 -8 q0 -5 3.5 -8.5 q3.5 -3.5 8 -3.5 q4.5 0 8 3.5 q3.5 3.5 3.5 8.5 q0 5 -3.5 8 q-3.5 3 -8 3 q-4.5 0 -8 -3 ZM34 123.5 q0 -68.5 48 -116.5 q48 -48 116 -48 q68 0 116 48 q48 48 48 116.5 q0 68.5 -48 116.5 q-48 48 -116 48 q-68 0 -116 -48 q-48 -48 -48 -116.5 ZM310 263 q8 -6 14.5 -12.5 q6.5 -6.5 12.5 -14.5 l25 27 l-27 27 l-25 -27 ZM335 311 l48 -48 l108 108 l-48 48 l-108 -108 ZM362 306 l10 10 l11 -11 l41 41 l10 -10 l-51 -52 l-21 22 ZM458 359 l-11 -11 l-11 11 l11 11 l11 -11 ZM95 326 l0 -16 l-15 0 l0 16 l15 0 ZM95 416 l0 -16 l-15 0 l0 16 l15 0 ZM216 357 l0 -16 l-14 0 l0 16 l14 0 ZM428 224 l0 -16 l-15 0 l0 16 l15 0 ZM445 96 l0 -16 l-15 0 l0 16 l15 0 ZM494 164 l0 -16 l-15 0 l0 16 l15 0 Z"></path></symbol><symbol id="004-ux-design" viewBox="0 -64 512 512"><path d="M45 37 q2 -2 2 -5 q0 -3 -2 -5.5 q-2 -2.5 -5.5 -2.5 q-3.5 0 -5.5 2.5 q-2 2.5 -2 5.5 q0 3 2 5 q2 2 5.5 2 q3.5 0 5.5 -2 ZM69 37 q2 -2 2 -5 q0 -3 -2 -5.5 q-2 -2.5 -5 -2.5 q-3 0 -5.5 2.5 q-2.5 2.5 -2.5 5.5 q0 3 2.5 5 q2.5 2 5.5 2 q3 0 5 -2 ZM93 37 q2 -2 2 -5 q0 -3 -2 -5.5 q-2 -2.5 -5 -2.5 q-3 0 -5.5 2.5 q-2.5 2.5 -2.5 5.5 q0 3 2.5 5 q2.5 2 5.5 2 q3 0 5 -2 ZM424 39 q8 0 8 -7.5 q0 -7.5 -8 -7.5 l-304 0 q-8 0 -8 7.5 q0 7.5 8 7.5 l304 0 ZM472 39 q8 0 8 -7.5 q0 -7.5 -8 -7.5 l-16 0 q-7 0 -7 7.5 q0 7.5 7 7.5 l16 0 ZM296 104 q-10 0 -16.5 7 q-6.5 7 -6.5 17 l-9 0 q-10 0 -17 7 q-7 7 -7 17 l0 65 l-17 0 l0 -25 q0 -10 -6.5 -17 q-6.5 -7 -16.5 -7 l-128 0 q-10 0 -17 7 q-7 7 -7 17 l0 64 q0 10 7 17 q7 7 17 7 l128 0 q10 0 16.5 -7 q6.5 -7 6.5 -17 l0 -24 l17 0 l0 64 q0 10 7 17 q7 7 17 7 l9 0 q0 10 6.5 17 q6.5 7 16.5 7 l144 0 q10 0 17 -7 q7 -7 7 -17 l0 -16 q0 -10 -7 -16.5 q-7 -6.5 -17 -6.5 l-144 0 q-10 0 -16.5 6.5 q-6.5 6.5 -6.5 16.5 l0 1 l-9 0 q-9 0 -9 -9 l0 -64 l18 0 q0 10 6.5 17 q6.5 7 16.5 7 l144 0 q10 0 17 -7 q7 -7 7 -17 l0 -16 q0 -10 -7 -16.5 q-7 -6.5 -17 -6.5 l-144 0 q-10 0 -16.5 6.5 q-6.5 6.5 -6.5 16.5 l0 1 l-18 0 l0 -65 q0 -9 9 -9 l9 0 l0 1 q0 10 6.5 16.5 q6.5 6.5 16.5 6.5 l144 0 q10 0 17 -6.5 q7 -6.5 7 -16.5 l0 -16 q0 -10 -7 -17 q-7 -7 -17 -7 l-144 0 ZM208 256 q0 9 -8 9 l-128 0 q-9 0 -9 -9 l0 -64 q0 -9 9 -9 l128 0 q8 0 8 9 l0 64 ZM288 304 q0 -8 8 -8 l144 0 q9 0 9 8 l0 16 q0 9 -9 9 l-144 0 q-8 0 -8 -9 l0 -16 ZM288 216 q0 -8 8 -8 l144 0 q9 0 9 8 l0 16 q0 9 -9 9 l-144 0 q-8 0 -8 -9 l0 -16 ZM449 144 q0 8 -9 8 l-144 0 q-8 0 -8 -8 l0 -16 q0 -9 8 -9 l144 0 q9 0 9 9 l0 16 ZM40 -8 q-17 0 -28.5 11.5 q-11.5 11.5 -11.5 28.5 l0 320 q0 17 11.5 28.5 q11.5 11.5 28.5 11.5 l432 0 q17 0 28.5 -11.5 q11.5 -11.5 11.5 -28.5 l0 -320 q0 -17 -11.5 -28.5 q-11.5 -11.5 -28.5 -11.5 l-432 0 ZM472 7 q11 0 18 7.5 q7 7.5 7 17.5 l0 24 l-482 0 l0 -24 q0 -10 7 -17.5 q7 -7.5 18 -7.5 l432 0 ZM40 377 q-11 0 -18 -7.5 q-7 -7.5 -7 -17.5 l0 -281 l482 0 l0 281 q0 10 -7 17.5 q-7 7.5 -18 7.5 l-432 0 Z"></path></symbol><symbol id="005-web-design" viewBox="0 -64 512 512"><path d="M51 55 l17 0 l0 -85 q0 -7 5 -12 q5 -5 12 -5 l342 0 q7 0 12 5 q5 5 5 12 l17 0 q0 -14 -10 -24 q-10 -10 -24 -10 l-342 0 q-7 0 -13 2.5 q-6 2.5 -10.5 7.5 q-4.5 5 -7.5 11 q-3 6 -3 13 l0 85 ZM51 -30 l0 0 ZM427 448 q14 0 24 -10 q10 -10 10 -24 l0 -34 l-17 0 l0 34 q0 7 -5 12 q-5 5 -12 5 q-7 0 -12 -5 q-5 -5 -5 -12 l0 -26 q0 -8 -9 -8 l-333 0 l0 -171 l-17 0 l0 171 l-42 0 q-9 0 -9 8 l0 26 q0 14 10 24 q10 10 24 10 l393 0 ZM393 397 l0 17 q0 9 4 17 l-363 0 q-7 0 -12 -5 q-5 -5 -5 -12 l0 -17 l376 0 ZM17 397 l0 0 ZM179 192 q9 0 9 -9 l0 -102 q0 -8 -9 -8 l-170 0 q-9 0 -9 8 l0 102 q0 9 9 9 l170 0 ZM171 90 l0 85 l-154 0 l0 -85 l154 0 ZM17 90 l0 0 ZM37 126 q-6 6 0 12 l17 17 l12 -12 l-11 -11 l11 -11 l-12 -12 l-17 17 ZM54 109 l0 0 ZM122 121 l11 11 l-11 11 l12 12 l17 -17 q6 -6 0 -12 l-17 -17 l-12 12 ZM134 109 l0 0 ZM93 161 l18 -52 l-17 -5 l-17 51 l16 6 ZM77 155 l0 0 ZM213 -13 q-8 0 -8 9 l0 170 q0 9 8 9 l290 0 q9 0 9 -9 l0 -170 q0 -9 -9 -9 l-290 0 ZM222 158 l0 -21 l76 -46 l75 48 q4 3 9 1 l62 -32 l51 29 l0 21 l-273 0 ZM448 91 q-4 -3 -8 0 l-62 31 l-75 -48 q-4 -3 -9 0 l-72 43 l0 -113 l273 0 l0 114 l-47 -27 ZM495 118 l0 0 ZM426.5 72.5 q8.5 -8.5 8.5 -21 q0 -12.5 -8.5 -21.5 q-8.5 -9 -21 -9 q-12.5 0 -21.5 9 q-9 9 -9 21.5 q0 12.5 9 21 q9 8.5 21.5 8.5 q12.5 0 21 -8.5 ZM414.5 42 q3.5 4 3.5 9.5 q0 5.5 -3.5 9 q-3.5 3.5 -9 3.5 q-5.5 0 -9 -3.5 q-3.5 -3.5 -3.5 -9 q0 -5.5 3.5 -9.5 q3.5 -4 9 -4 q5.5 0 9 4 ZM405 38 l0 0 ZM85 320 q0 9 9 9 l213 0 q9 0 9 -9 l0 -102 q0 -9 -9 -9 l-213 0 q-9 0 -9 9 l0 102 ZM299 226 l0 85 l-197 0 l0 -85 l197 0 ZM102 226 l0 0 ZM119 260 l35 0 l0 -17 l-35 0 l0 17 ZM119 243 l0 0 ZM171 260 l76 0 l0 -17 l-76 0 l0 17 ZM171 243 l0 0 ZM265 260 l17 0 l0 -17 l-17 0 l0 17 ZM265 243 l0 0 ZM119 294 l103 0 l0 -17 l-103 0 l0 17 ZM119 277 l0 0 ZM239 294 l43 0 l0 -17 l-43 0 l0 17 ZM239 277 l0 0 ZM85 -13 l17 0 l0 -17 l-17 0 l0 17 ZM85 -30 l0 0 ZM119 -13 l18 0 l0 -17 l-18 0 l0 17 ZM119 -30 l0 0 ZM154 -13 l17 0 l0 -17 l-17 0 l0 17 ZM154 -30 l0 0 ZM85 21 l103 0 l0 -17 l-103 0 l0 17 ZM85 4 l0 0 ZM341 243 q-8 0 -8 9 l0 102 q0 9 8 9 l162 0 q9 0 9 -9 l0 -102 q0 -9 -9 -9 l-162 0 ZM350 346 l0 -86 l145 0 l0 86 l-145 0 ZM495 346 l0 0 ZM367 294 l17 0 l0 -17 l-17 0 l0 17 ZM367 277 l0 0 ZM367 329 l17 0 l0 -18 l-17 0 l0 18 ZM367 311 l0 0 ZM401 294 l77 0 l0 -17 l-77 0 l0 17 ZM401 277 l0 0 ZM401 329 l77 0 l0 -18 l-77 0 l0 18 ZM401 311 l0 0 ZM444 226 l17 0 l0 -34 l-17 0 l0 34 ZM444 192 l0 0 Z"></path></symbol><symbol id="006-idea" viewBox="0 -64 512 512"><path d="M142 59 q-47 47 -47 114 q0 51 28.5 92 q28.5 41 75.5 59 l0 86 q0 10 10 10 l9 0 l0 19 q0 9 10 9 l56 0 q10 0 10 -9 l0 -19 l9 0 q10 0 10 -10 l0 -86 q47 -18 75.5 -59 q28.5 -41 28.5 -92 q0 -67 -47 -114 q-47 -47 -114 -47 q-67 0 -114 47 ZM284 401 q-9 0 -9 9 l0 19 l-38 0 l0 -19 q0 -9 -9 -9 l-10 0 l0 -48 l76 0 l0 48 l-10 0 ZM300 308 q-6 2 -6 9 l0 17 l-76 0 l0 -17 q0 -7 -6 -9 q-44 -14 -71 -51.5 q-27 -37.5 -27 -83.5 q0 -59 41.5 -100.5 q41.5 -41.5 100.5 -41.5 q59 0 100.5 41.5 q41.5 41.5 41.5 100.5 q0 46 -27 83.5 q-27 37.5 -71 51.5 ZM265 -17 l0 -38 q0 -9 -9 -9 q-9 0 -9 9 l0 38 q0 10 9 10 q9 0 9 -10 ZM446 164 q-10 0 -10 9.5 q0 9.5 10 9.5 l38 0 q9 0 9 -9.5 q0 -9.5 -9 -9.5 l-38 0 ZM28 164 q-9 0 -9 9.5 q0 9.5 9 9.5 l38 0 q10 0 10 -9.5 q0 -9.5 -10 -9.5 l-38 0 ZM383 32 q-6 7 0 14 q3 2 7 2 q4 0 7 -2 l27 -27 q6 -7 -0.5 -13.5 q-6.5 -6.5 -13.5 -0.5 l-27 27 ZM88 327 q-6 7 0 14 q3 2 7 2 q4 0 7 -2 l27 -27 q6 -7 -0.5 -13.5 q-6.5 -6.5 -13.5 -0.5 l-27 27 ZM397 300 q-7 -6 -13.5 0.5 q-6.5 6.5 -0.5 13.5 l27 27 q3 2 7 2 q4 0 7 -2 q6 -7 0 -14 l-27 -27 ZM115 46 q3 2 7 2 q4 0 7 -2 q6 -7 0 -14 l-27 -27 q-7 -6 -13.5 0.5 q-6.5 6.5 -0.5 13.5 l27 27 ZM256 59 q-47 0 -80.5 33.5 q-33.5 33.5 -33.5 80.5 q0 10 9.5 10 q9.5 0 9.5 -10 q0 -39 28 -67 q28 -28 67 -28 q9 0 9 -9.5 q0 -9.5 -9 -9.5 Z"></path></symbol><symbol id="007-innovation" viewBox="0 -64 512 512"><path d="M435 158 q-6 -17 -23.5 -16.5 q-17.5 0.5 -23.5 16.5 l-52 0 l0 -33 l33 0 q9 0 9 -9 l0 -35 q10 -3 14.5 -12.5 q4.5 -9.5 1 -19.5 q-3.5 -10 -13 -14.5 q-9.5 -4.5 -19.5 -1 q-10 3.5 -14.5 13 q-4.5 9.5 -0.5 19.5 q4 11 15 15 l0 27 l-25 0 l0 -17 q0 -8 -9 -8 l-16 0 l0 -44 q9 -3 13.5 -12.5 q4.5 -9.5 1 -19.5 q-3.5 -10 -12.5 -14.5 q-9 -4.5 -19 -1 q-10 3.5 -14.5 13 q-4.5 9.5 -1.5 19.5 q4 11 16 15 l0 44 l-34 0 l0 -134 q0 -9 -8 -9 q-78 0 -131.5 49.5 q-53.5 49.5 -53.5 121.5 q0 74 47 157 q5 9 19 29 q33 46 35 68 q-11 7 -11 20 q0 8 6 15 q-8 8 -8 19 q0 10 7.5 17.5 q7.5 7.5 17.5 7.5 l143 0 q11 0 18 -7.5 q7 -7.5 7 -18.5 q0 -11 -7 -18 q5 -7 5 -16 q0 -10 -7 -17 q-7 -7 -17 -7 q0 0 -1 0 l-61 0 l0 -160 l17 0 l0 25 q0 9 8 9 l26 0 l0 10 q-5 1 -9 4.5 q-4 3.5 -6 8 q-2 4.5 -2.5 9.5 q-0.5 5 1.5 10 q4 10 13.5 14.5 q9.5 4.5 19 1 q9.5 -3.5 14 -13 q4.5 -9.5 1.5 -19.5 q-4 -11 -16 -15 l0 -19 q0 -8 -8 -8 l-25 0 l0 -17 l33 0 q9 0 9 -8 l0 -17 l52 0 q3 10 12.5 14.5 q9.5 4.5 19.5 0.5 q6 -2 10.5 -7 q4.5 -5 5.5 -11.5 q1 -6.5 -1 -13.5 ZM378 57.5 q0 8.5 -8.5 8.5 q-8.5 0 -8.5 -8.5 q0 -8.5 8.5 -8.5 q8.5 0 8.5 8.5 ZM147 288 q-13 -20 -18 -28 q-45 -80 -45 -149 q0 -41 21 -75.5 q21 -34.5 57.5 -55.5 q36.5 -21 80.5 -23 l0 59 q-3 0 -7 1 q-5 0 -7 6 l-2 12 q-3 1 -7 2 l-8 -9 q-4 -5 -9 -2 q-15 6 -27 15 q-5 4 -3 9 l4 12 q-2 2 -5 5 l-11 -4 q-6 -2 -10 3 q-9 12 -15 26 q-2 6 2 10 l9 8 q-1 3 -1 6 l-13 3 q-7 1 -7 8 l0 29 q0 7 7 8 l13 3 q0 3 1 6 l-9 8 q-4 4 -2 10 q6 14 15 26 q4 5 10 3 l11 -4 q3 3 5 5 l-4 12 q-2 5 3 9 q12 9 27 15 q5 3 9 -2 l8 -9 q4 1 7 2 l2 12 q2 6 7 6 q4 1 7 1 l0 93 l-59 0 q-4 -25 -37 -72 ZM195.5 191.5 q19.5 21.5 47.5 25.5 l0 28 l-1 -6 q-1 -6 -7 -7 q-7 -1 -14 -4 q-2 0 -3 0 q-4 0 -6 3 l-8 8 q-7 -3 -13 -7 l4 -11 q1 -5 -3 -9 q-6 -5 -11 -11 q-3 -4 -9 -2 l-11 3 q-4 -6 -7 -12 l9 -8 q4 -4 2 -9 q-3 -8 -4 -15 q-1 -6 -7 -7 l-11 -2 l0 -15 l11 -2 q6 -1 7 -7 q1 -7 4 -15 q2 -5 -2 -9 l-9 -8 q3 -6 7 -12 l11 3 q6 2 9 -2 q5 -6 11 -11 q4 -4 3 -9 l-4 -11 q6 -4 13 -7 l8 8 q3 5 9 3 q7 -3 14 -4 q6 -1 7 -7 l1 -6 l0 28 q-28 4 -47.5 25.5 q-19.5 21.5 -19.5 50 q0 28.5 19.5 50 ZM243 200 q-24 -4 -38.5 -23.5 q-14.5 -19.5 -10.5 -43.5 q2 -19 16 -33 q14 -14 33 -17 l0 117 ZM332 419 q0 8 -9 8 l-143 0 q-8 0 -8 -9 q0 -8 8 -8 l143 0 q9 0 9 8 l0 1 ZM321 377 q8 -1 8 7 q0 0 0 1 q0 8 -8 8 l-138 0 q-9 0 -9 -9 q1 -8 8 -7 q0 0 1 0 l138 0 ZM327 267.5 q0 8.5 -8 8.5 q-8 0 -8 -8.5 q0 -8.5 8 -8.5 q8 0 8 8.5 ZM311 15.5 q0 8.5 -8.5 8.5 q-8.5 0 -8.5 -8.5 q0 -8.5 8.5 -8.5 q8.5 0 8.5 8.5 ZM260 183 l0 -83 l59 0 l0 83 l-59 0 ZM403 166.5 q0 -8.5 8.5 -8.5 q8.5 0 8.5 8.5 q0 8.5 -8.5 8.5 q-8.5 0 -8.5 -8.5 ZM333 324 q-5 8 -8 16 l16 7 q3 -8 6 -15 l-14 -8 ZM352 294 q-6 9 -10 15 l14 9 q4 -6 9 -14 l-13 -10 ZM371 267 q-4 5 -10 13 l14 10 q6 -9 10 -15 l-14 -8 ZM386 237 q-3 8 -7 15 l15 8 q4 -8 8 -16 l-16 -7 ZM400 206 q-3 8 -7 16 l16 7 q3 -8 6 -17 l-15 -6 ZM420 109 l0 2 q0 7 -1 15 l17 1 q0 -8 0 -16 l0 -2 l-16 0 ZM416 77 q2 8 3 16 l16 -2 q-1 -9 -3 -17 l-16 3 ZM405 47 q4 7 6 15 l16 -6 q-3 -8 -7 -16 l-15 7 ZM388 20 q5 6 9 13 l14 -9 q-4 -8 -10 -15 l-13 11 ZM365 -3 q6 5 12 11 l12 -12 q-6 -7 -13 -12 l-11 13 ZM338 -22 q7 4 14 9 l9 -14 q-7 -5 -15 -9 l-8 14 ZM308 -34 q8 2 15 5 l7 -15 q-8 -3 -17 -6 l-5 16 ZM276 -41 q8 1 16 3 l4 -17 q-9 -2 -18 -3 l-2 17 ZM34 410 l0 -17 l-17 0 l0 17 l17 0 ZM34 444 l0 -17 l-17 0 l0 17 l17 0 ZM50 427 l0 -17 l-16 0 l0 17 l16 0 ZM17 427 l0 -17 l-17 0 l0 17 l17 0 ZM495 -43 l0 -17 l-17 0 l0 17 l17 0 ZM495 -10 l0 -16 l-17 0 l0 16 l17 0 ZM512 -26 l0 -17 l-17 0 l0 17 l17 0 ZM478 -26 l0 -17 l-16 0 l0 17 l16 0 Z"></path></symbol><symbol id="uniF107" viewBox="0 -64 512 512"><path d="M166 -5 q-9 2 -15.5 7.5 q-6.5 5.5 -10.5 14.5 l-3 7 l-1 22 l0 22 l-54 0 q-25 0 -40.5 0 q-15.5 0 -18.5 1 q-7 1 -12.5 5.5 q-5.5 4.5 -7.5 10.5 q-1 1 -1 21 q0 20 0 81 q0 76 0.5 92 q0.5 16 4.5 18 q2 2 4 3.5 q2 1.5 4 2.5 l3 2 l0 60 q0 29 0 45 q0 16 1 19 q2 4 5 8.5 q3 4.5 8 6.5 l6 3 l433 0 l5 -3 q5 -2 8.5 -6.5 q3.5 -4.5 4.5 -8.5 q1 -3 1 -19 q0 -16 0 -45 l0 -60 l5 -2 q1 -1 3 -2.5 q2 -1.5 3 -3.5 q5 -2 6 -18 q1 -16 1 -92 q0 -61 -0.5 -81 q-0.5 -20 -1.5 -21 q-3 -6 -7.5 -10.5 q-4.5 -4.5 -12.5 -5.5 q-3 -1 -18.5 -1 q-15.5 0 -41.5 0 l-54 0 l0 -22 l-1 -23 l-3 -7 q-3 -7 -8 -11.5 q-5 -4.5 -13 -8.5 l-6 -2 l-85 -1 q-57 0 -73 0.5 q-16 0.5 -17 1.5 ZM340 11 q4 3 7.5 5.5 q3.5 2.5 5.5 7.5 q2 3 2 7 q0 4 0 17 l0 20 l-17 0 l0 -18 q0 -14 0 -17.5 q0 -3.5 -2 -3.5 l-3 -2 l-158 0 l-2 2 q-2 0 -2.5 3.5 q-0.5 3.5 -0.5 17.5 l0 18 l-16 0 l0 -20 q0 -13 0.5 -17 q0.5 -4 1.5 -6 q2 -5 4.5 -8 q2.5 -3 7.5 -6 l5 -2 l82 0 q56 0 70.5 0.5 q14.5 0.5 14.5 1.5 ZM322 68 l-135 0 l0 -25 l135 0 l0 25 ZM484 85 q5 -1 6 12.5 q1 13.5 0 89.5 q1 76 0 90 q-1 14 -6 12 q-14 2 -97 13 q-83 11 -97 14 q-1 0 -1.5 -1.5 q-0.5 -1.5 -0.5 -6.5 q0 -9 -3.5 -15.5 q-3.5 -6.5 -9.5 -10.5 q-2 -2 -5.5 -2 q-3.5 0 -14.5 0 q-12 0 -15.5 0 q-3.5 0 -5.5 2 q-7 4 -10 10.5 q-3 6.5 -3 15.5 q0 5 -0.5 6.5 q-0.5 1.5 -1.5 1.5 q-15 -3 -97.5 -14 q-82.5 -11 -95.5 -13 q-6 2 -7 -12 q-1 -14 -1 -90 q0 -75 1 -89 q1 -14 6 -13 q31 -1 229.5 -1 q198.5 0 229.5 1 ZM271 301 l0 28 q0 20 -1 26 q-1 6 -3 7 q-4 1 -12.5 1 q-8.5 0 -12.5 -1 q-3 -1 -4 -7 q-1 -6 -1 -26 l0 -28 l3 -2 q2 -2 4 -3 q2 -1 11 0 q7 -1 9.5 0 q2.5 1 3.5 3 l3 2 ZM128 321 q38 4 63 8 q25 4 27 4 l3 1 l0 13 q1 11 2 16 q1 5 5 10 q4 4 9 5 q5 1 18 1 q12 0 17 -1 q5 -1 8 -5 q5 -5 6.5 -10 q1.5 -5 1.5 -16 l0 -13 l3 -1 q2 0 27.5 -4 q25.5 -4 61.5 -8 q38 -6 63 -9 q25 -3 28 -4 l3 -1 l0 59 q0 42 -0.5 52.5 q-0.5 10.5 -3.5 10.5 q-28 2 -215.5 2 q-187.5 0 -215.5 -2 q-3 0 -3.5 -10.5 q-0.5 -10.5 -0.5 -52.5 l0 -59 l3 1 q2 1 28 4 q26 3 62 9 Z"></path></symbol><symbol id="uniF108" viewBox="0 -64 512 512"><path d="M128 52.1 q-67 25 -94 35 q-27 10 -27 11 q-3 3 -4 6.5 q-1 3.5 -1 7.5 q0 6 8.5 9.5 q8.5 3.5 43.5 17.5 l45 16 l0 49 q0 21 0 36 q0 15 0 17 q0 4 7 10 q7 6 15 12 q24 17 58.5 24.5 q34.5 7.5 79.5 6.5 q32 -1 57 -6.5 q25 -5.5 45 -14.5 q13 -6 22.5 -13 q9.5 -7 14.5 -13 l3 -3 l1 -104 l17 -7 q8 -3 12.5 -4.5 q4.5 -1.5 5.5 -1.5 q0 1 0.5 18.5 q0.5 17.5 0.5 44.5 l0 61 l-21 22 q-22 21 -22 29 q0 8 22 28 l21 22 l0 18 q1 14 1 17.5 q0 3.5 1 4.5 q6 7 13 7 q7 0 12 -7 q2 -1 2 -4.5 q0 -3.5 1 -17.5 l0 -18 l20 -21 q9 -9 15 -15.5 q6 -6.5 7 -7.5 q2 -3 2 -6.5 q0 -3.5 -2 -6.5 q-1 -1 -7 -8 q-6 -7 -15 -16 l-20 -19 l0 -68 l0 -68 l14 -5 q13 -4 15.5 -6 q2.5 -2 3.5 -6 q2 -5 1.5 -9 q-0.5 -4 -2.5 -7 q0 -2 -22.5 -10 q-22.5 -8 -100.5 -37 q-72 -26 -97.5 -35 q-25.5 -9 -27.5 -8 q-2 0 -29.5 9.5 q-27.5 9.5 -94.5 33.5 ZM349 73.1 q39 16 66 25 q27 9 28 10 q0 1 -27.5 11 q-27.5 10 -68.5 25 l-97 35 l-95 -35 q-49 -19 -71.5 -27 q-22.5 -8 -21.5 -9 q17 -7 97 -35 q80 -28 93 -33 q3 0 29.5 9.5 q26.5 9.5 67.5 23.5 ZM188 188.1 q33 12 46.5 17 q13.5 5 15.5 4 q2 0 17.5 -5 q15.5 -5 44.5 -15 q25 -10 41.5 -16 q16.5 -6 17.5 -6 q1 0 1 11.5 q0 11.5 0 28.5 l0 40 l-5 4 q-12 11 -36 18 q-24 7 -54 10 q-15 1 -35 0.5 q-20 -0.5 -32 -1.5 q-26 -5 -46 -11 q-20 -6 -31 -16 l-5 -3 l0 -41 q0 -17 0 -28.5 q0 -11.5 1 -11.5 q0 0 17 6 q17 6 42 15 ZM476 318.1 l-12 11 l-12 11 l-10 -11 l-12 -11 l11 -11 q5 -6 8 -8.5 q3 -2.5 3 -2.5 q1 0 4.5 2.5 q3.5 2.5 7.5 8.5 l12 11 Z"></path></symbol></defs></svg>